HIERARCHY
ROOT Pelvis
{
	OFFSET 0.000000 0.000000 0.000000
	CHANNELS 6 Xposition Yposition Zposition Xrotation Yrotation Zrotation
	JOINT LeftUpLeg_virtual
	{
		OFFSET 0.000000 0.000000 0.000000
		CHANNELS 3 Xrotation Yrotation Zrotation
		JOINT LeftUpLeg
		{
			OFFSET 18.735201 -5.666702 -4.541200
			CHANNELS 3 Xrotation Yrotation Zrotation
			JOINT LeftLeg
			{
				OFFSET -0.021200 -31.938179 0.493100
				CHANNELS 3 Xrotation Yrotation Zrotation
				JOINT LeftFoot
				{
					OFFSET 0.021200 -31.938179 -4.336299
					CHANNELS 3 Xrotation Yrotation Zrotation
					JOINT LeftToeBase
					{
						OFFSET 0.943001 -26.722000 15.023500
						CHANNELS 3 Xrotation Yrotation Zrotation
						End Site
						{
							OFFSET 0 0 0
						}
					}
				}
			}
		}
	}
	JOINT RightUpLeg_virtual
	{
		OFFSET 0.000000 0.000000 0.000000
		CHANNELS 3 Xrotation Yrotation Zrotation
		JOINT RightUpLeg
		{
			OFFSET -18.735201 -5.666702 -4.541200
			CHANNELS 3 Xrotation Yrotation Zrotation
			JOINT RightLeg
			{
				OFFSET 0.018946 -31.938133 0.493100
				CHANNELS 3 Xrotation Yrotation Zrotation
				JOINT RightFoot
				{
					OFFSET -0.018946 -31.938126 -4.336299
					CHANNELS 3 Xrotation Yrotation Zrotation
					JOINT RightToeBase
					{
						OFFSET -0.943001 -26.722004 15.023500
						CHANNELS 3 Xrotation Yrotation Zrotation
						End Site
						{
							OFFSET 0 0 0
						}
					}
				}
			}
		}
	}
	JOINT Hips_virtual
	{
		OFFSET 0.000000 0.000000 0.000000
		CHANNELS 3 Xrotation Yrotation Zrotation
		JOINT Hips
		{
			OFFSET -0.000000 -0.000000 -0.000000
			CHANNELS 3 Xrotation Yrotation Zrotation
			JOINT Spine
			{
				OFFSET 0.000000 10.199997 -0.299500
				CHANNELS 3 Xrotation Yrotation Zrotation
				JOINT Spine1
				{
					OFFSET 0.000000 11.900002 -1.516600
					CHANNELS 3 Xrotation Yrotation Zrotation
					JOINT Spine2
					{
						OFFSET 0.000000 13.600006 -2.842500
						CHANNELS 3 Xrotation Yrotation Zrotation
						JOINT Neck_virtual
						{
							OFFSET 0.000000 0.000000 0.000000
							CHANNELS 3 Xrotation Yrotation Zrotation
							JOINT Neck
							{
								OFFSET 0.000000 9.624100 -2.890100
								CHANNELS 3 Xrotation Yrotation Zrotation
								JOINT Head
								{
									OFFSET 0.000000 14.068802 -1.351900
									CHANNELS 3 Xrotation Yrotation Zrotation
									End Site
									{
										OFFSET 0 0 0
									}
								}
							}
						}
						JOINT LeftShoulder_virtual
						{
							OFFSET 0.000000 0.000000 0.000000
							CHANNELS 3 Xrotation Yrotation Zrotation
							JOINT LeftShoulder
							{
								OFFSET 15.263000 10.923401 -0.547700
								CHANNELS 3 Xrotation Yrotation Zrotation
								JOINT LeftArm
								{
									OFFSET 25.438599 -2.830597 -13.032500
									CHANNELS 3 Xrotation Yrotation Zrotation
									JOINT LeftForeArm
									{
										OFFSET 29.960503 0.000000 0.000000
										CHANNELS 3 Xrotation Yrotation Zrotation
										JOINT LeftHand
										{
											OFFSET 27.849251 0.000000 0.000000
											CHANNELS 3 Xrotation Yrotation Zrotation
											End Site
											{
												OFFSET 0 0 0
											}
										}
									}
								}
							}
						}
						JOINT RightShoulder_virtual
						{
							OFFSET 0.000000 0.000000 0.000000
							CHANNELS 3 Xrotation Yrotation Zrotation
							JOINT RightShoulder
							{
								OFFSET -15.263000 10.923401 -0.547700
								CHANNELS 3 Xrotation Yrotation Zrotation
								JOINT RightArm
								{
									OFFSET -25.438599 -2.830597 -13.032500
									CHANNELS 3 Xrotation Yrotation Zrotation
									JOINT RightForeArm
									{
										OFFSET -29.960503 0.000000 0.000000
										CHANNELS 3 Xrotation Yrotation Zrotation
										JOINT RightHand
										{
											OFFSET -27.849251 0.000000 0.000000
											CHANNELS 3 Xrotation Yrotation Zrotation
											End Site
											{
												OFFSET 0 0 0
											}
										}
									}
								}
							}
						}
					}
				}
			}
		}
	}
}
MOTION
Frames: 13
Frame Time: 0.03333333
-0.748810 84.207878 73.899338 0.000000 0.000000 0.000000 29.430998 -2.815642 -5.648130 2.165214 15.349003 6.150824 20.743474 8.159006 -6.608069 -25.790091 11.252918 -10.573249 0.000000 0.000000 0.000000 -5.683943 15.877290 15.594420 -39.373479 -3.907226 -1.931869 54.398615 -17.255814 -8.447345 -3.335238 -14.643707 -16.180366 0.000000 0.000000 0.000000 12.440390 8.840942 -0.533277 27.290817 10.249885 -6.025218 11.699730 0.359088 4.612168 4.917106 -0.438310 2.923029 0.000000 0.000000 0.000000 5.663350 -0.371169 2.301238 0.617404 -0.270378 0.761459 0.000000 0.000000 0.000000 10.509648 -1.328716 4.140795 3.560164 -12.439445 4.289185 -12.702740 -51.539081 0.842448 94.721828 -79.082164 104.189201 0.000000 0.000000 0.000000 9.147934 0.828152 1.526118 2.846398 4.007465 7.603878 -12.906892 27.500319 -8.449025 72.298741 76.465703 -89.080502 0.000000 0.000000 0.000000 
-0.775932 84.056702 74.092155 0.000000 0.000000 0.000000 29.450201 -2.802292 -5.587844 2.163516 15.354766 6.232875 21.007666 8.082793 -6.671258 -25.628997 11.201215 -10.682309 0.000000 0.000000 0.000000 -5.785563 15.601924 15.621474 -39.581479 -3.977369 -1.968323 54.656229 -17.261596 -8.517202 -3.202996 -14.583209 -16.298262 0.000000 0.000000 0.000000 12.468643 8.768617 -0.522834 27.570248 10.326515 -6.071283 11.544111 0.338123 4.598027 4.816396 -0.449389 2.919923 0.000000 0.000000 0.000000 5.546216 -0.374243 2.292527 0.578611 -0.262686 0.750643 0.000000 0.000000 0.000000 10.377117 -1.355051 4.142198 3.550490 -12.513373 4.388398 -12.999561 -51.461794 0.765851 93.624818 -79.154051 103.101630 0.000000 0.000000 0.000000 9.004159 0.794105 1.499997 2.839115 3.992513 7.473751 -12.953426 27.657435 -8.301173 72.414956 76.520481 -89.147376 0.000000 0.000000 0.000000 
-0.801669 83.906555 74.281540 0.000000 0.000000 0.000000 29.471836 -2.791040 -5.529684 2.164377 15.360710 6.311792 21.273007 8.007806 -6.734364 -25.467378 11.150714 -10.790702 0.000000 0.000000 0.000000 -5.877554 15.326806 15.648334 -39.778844 -4.048353 -2.004524 54.897847 -17.267871 -8.584951 -3.082185 -14.524985 -16.411520 0.000000 0.000000 0.000000 12.499149 8.696590 -0.512189 27.855721 10.407362 -6.119070 11.385949 0.317465 4.584125 4.713832 -0.460197 2.917366 0.000000 0.000000 0.000000 5.427399 -0.376190 2.283410 0.539451 -0.254810 0.739781 0.000000 0.000000 0.000000 10.241852 -1.380958 4.144206 3.540305 -12.587783 4.493494 -13.326739 -51.380699 0.676838 92.480112 -79.227913 101.969998 0.000000 0.000000 0.000000 8.859262 0.760469 1.474917 2.832029 3.982542 7.345413 -13.011434 27.814931 -8.151390 72.457461 76.575942 -89.141694 0.000000 0.000000 0.000000 
-0.826219 83.756767 74.468163 0.000000 0.000000 0.000000 29.496172 -2.782370 -5.473466 2.168168 15.366759 6.387619 21.538839 7.934023 -6.797642 -25.305731 11.101497 -10.898794 0.000000 0.000000 0.000000 -5.960081 15.054900 15.675352 -39.965185 -4.119497 -2.040064 55.127065 -17.272983 -8.650347 -2.969642 -14.467575 -16.518807 0.000000 0.000000 0.000000 12.531601 8.624476 -0.501571 28.146907 10.492156 -6.170869 11.224004 0.296853 4.569946 4.608716 -0.470813 2.915081 0.000000 0.000000 0.000000 5.306492 -0.377264 2.273349 0.499741 -0.246934 0.728521 0.000000 0.000000 0.000000 10.103572 -1.406497 4.146431 3.529578 -12.662898 4.602816 -13.680219 -51.295448 0.575523 91.281524 -79.303141 100.786811 0.000000 0.000000 0.000000 8.712906 0.727211 1.450757 2.825180 3.977725 7.218383 -13.079612 27.971682 -7.998697 72.419574 76.631635 -89.056350 0.000000 0.000000 0.000000 
-0.849979 83.606644 74.652649 0.000000 0.000000 0.000000 29.523424 -2.776801 -5.418867 2.175128 15.372780 6.460566 21.804558 7.861323 -6.861353 -25.144539 11.053563 -11.006986 0.000000 0.000000 0.000000 -6.033765 14.788726 15.702786 -40.140803 -4.190163 -2.074711 55.347915 -17.275613 -8.713278 -2.861973 -14.409771 -16.619365 0.000000 0.000000 0.000000 12.565711 8.551767 -0.491162 28.443411 10.579996 -6.228377 11.057078 0.275981 4.554875 4.500365 -0.481338 2.912739 0.000000 0.000000 0.000000 5.183152 -0.377754 2.261841 0.459343 -0.239255 0.716537 0.000000 0.000000 0.000000 9.961916 -1.431730 4.148401 3.518194 -12.738951 4.714422 -14.055985 -51.205638 0.461211 90.023287 -79.379174 99.544796 0.000000 0.000000 0.000000 8.564662 0.694280 1.427321 2.818505 3.978018 7.091966 -13.157162 28.126699 -7.842240 72.295093 76.686987 -88.884735 0.000000 0.000000 0.000000 
-0.873448 83.455467 74.835663 0.000000 0.000000 0.000000 29.553723 -2.774717 -5.365480 2.185333 15.378678 6.531005 22.069695 7.789494 -6.925752 -24.984216 11.006823 -11.115702 0.000000 0.000000 0.000000 -6.099668 14.529926 15.730752 -40.306736 -4.259846 -2.108504 55.564518 -17.275003 -8.773796 -2.755913 -14.350752 -16.713128 0.000000 0.000000 0.000000 12.601241 8.477929 -0.481088 28.745008 10.669612 -6.292517 10.884061 0.254598 4.538274 4.388149 -0.491859 2.909996 0.000000 0.000000 0.000000 5.057040 -0.377937 2.248492 0.418125 -0.231961 0.703586 0.000000 0.000000 0.000000 9.816482 -1.456666 4.149621 3.505970 -12.816012 4.826366 -14.450208 -51.110859 0.332795 88.701064 -79.455304 98.238105 0.000000 0.000000 0.000000 8.414010 0.661624 1.404352 2.811816 3.983228 6.965295 -13.244049 28.279181 -7.681346 72.077832 76.741567 -88.620455 0.000000 0.000000 0.000000 
-0.897116 83.302551 75.017929 0.000000 0.000000 0.000000 29.587102 -2.776217 -5.312851 2.198691 15.384419 6.599483 22.333957 7.718271 -6.991097 -24.825070 10.961128 -11.225391 0.000000 0.000000 0.000000 -6.159222 14.279055 15.759215 -40.464739 -4.328223 -2.141771 55.780779 -17.270967 -8.832111 -2.648591 -14.290128 -16.800686 0.000000 0.000000 0.000000 12.638070 8.402592 -0.471439 29.051824 10.759699 -6.363515 10.703985 0.232579 4.519562 4.271521 -0.502408 2.906545 0.000000 0.000000 0.000000 4.927760 -0.378033 2.233103 0.375933 -0.225227 0.689549 0.000000 0.000000 0.000000 9.666838 -1.481214 4.149631 3.492674 -12.893964 4.936951 -14.859300 -51.010834 0.189219 87.312453 -79.530627 96.862922 0.000000 0.000000 0.000000 8.260384 0.629208 1.381545 2.804823 3.993052 6.837437 -13.341074 28.428694 -7.515632 71.762120 76.794863 -88.257874 0.000000 0.000000 0.000000 
-0.921348 83.147270 75.200294 0.000000 0.000000 0.000000 29.623538 -2.781061 -5.260502 2.214958 15.390050 6.666703 22.597379 7.647313 -7.057640 -24.667156 10.916264 -11.336508 0.000000 0.000000 0.000000 -6.214131 14.035701 15.788035 -40.617168 -4.395167 -2.175070 56.000216 -17.263809 -8.888514 -2.537633 -14.227883 -16.883092 0.000000 0.000000 0.000000 12.676209 8.325666 -0.462304 29.364500 10.849224 -6.441117 10.516062 0.209963 4.498309 4.150027 -0.512949 2.902154 0.000000 0.000000 0.000000 4.794830 -0.378189 2.215735 0.332551 -0.219206 0.674476 0.000000 0.000000 0.000000 9.512588 -1.505162 4.148059 3.478052 -12.972449 5.044932 -15.279934 -50.905530 0.029864 85.858654 -79.604011 95.419307 0.000000 0.000000 0.000000 8.103197 0.597018 1.358588 2.797171 4.007081 6.707530 -13.449753 28.574988 -7.345082 71.342870 76.846465 -87.792349 0.000000 0.000000 0.000000 
-0.946317 82.989082 75.383705 0.000000 0.000000 0.000000 29.662938 -2.788694 -5.207924 2.233775 15.395704 6.733501 22.860464 7.576239 -7.125603 -24.510206 10.871970 -11.449483 0.000000 0.000000 0.000000 -6.266238 13.798788 15.817053 -40.766674 -4.460681 -2.209064 56.225868 -17.254087 -8.943311 -2.421143 -14.164219 -16.961532 0.000000 0.000000 0.000000 12.715822 8.247423 -0.453798 29.684228 10.937580 -6.524848 10.319662 0.186931 4.474289 4.023311 -0.523383 2.896707 0.000000 0.000000 0.000000 4.657690 -0.378491 2.196737 0.287699 -0.214035 0.658587 0.000000 0.000000 0.000000 9.353399 -1.528202 4.144665 3.461859 -13.050926 5.149633 -15.709131 -50.795386 -0.145165 84.344886 -79.674273 93.911727 0.000000 0.000000 0.000000 7.941896 0.565055 1.335206 2.788461 4.024775 6.574968 -13.572117 28.717773 -7.170107 70.816262 76.895929 -87.220826 0.000000 0.000000 0.000000 
-0.971979 82.827545 75.569214 0.000000 0.000000 0.000000 29.705159 -2.798357 -5.154599 2.254696 15.401530 6.800806 23.124179 7.504624 -7.195145 -24.353598 10.827918 -11.564672 0.000000 0.000000 0.000000 -6.317364 13.567051 15.846140 -40.915907 -4.524843 -2.244366 56.460331 -17.242365 -8.996688 -2.297606 -14.099406 -17.036946 0.000000 0.000000 0.000000 12.757210 8.168433 -0.446074 30.012661 11.024561 -6.614222 10.114261 0.163746 4.447527 3.891087 -0.533578 2.890216 0.000000 0.000000 0.000000 4.515735 -0.378978 2.176720 0.241050 -0.209828 0.642255 0.000000 0.000000 0.000000 9.189033 -1.549961 4.139360 3.443884 -13.128741 5.250978 -16.144375 -50.681493 -0.334918 82.781613 -79.740232 92.350339 0.000000 0.000000 0.000000 7.775971 0.533325 1.311215 2.778269 4.045459 6.439603 -13.710421 28.856467 -6.991540 70.179552 76.942450 -86.541762 0.000000 0.000000 0.000000 
-0.998114 82.662300 75.757919 0.000000 0.000000 0.000000 29.749975 -2.809238 -5.099984 2.277235 15.407689 6.869566 23.389885 7.432032 -7.266323 -24.196404 10.783728 -11.682300 0.000000 0.000000 0.000000 -6.369155 13.339371 15.875246 -41.067199 -4.587719 -2.281436 56.705658 -17.228932 -9.048606 -2.165783 -14.033601 -17.109660 0.000000 0.000000 0.000000 12.800767 8.089486 -0.439315 30.351687 11.110178 -6.708874 9.899376 0.140698 4.418267 3.753108 -0.543393 2.882803 0.000000 0.000000 0.000000 4.368412 -0.379662 2.156464 0.192286 -0.206679 0.625946 0.000000 0.000000 0.000000 9.019341 -1.570065 4.132199 3.423968 -13.205249 5.349421 -16.583752 -50.565458 -0.537627 81.183949 -79.800843 90.750435 0.000000 0.000000 0.000000 7.604988 0.501850 1.286565 2.766144 4.068378 6.301869 -13.866823 28.990011 -6.810587 69.431024 76.985159 -85.754774 0.000000 0.000000 0.000000 
-1.024403 82.493065 75.950912 0.000000 0.000000 0.000000 29.797096 -2.820640 -5.043569 2.300900 15.414291 6.940650 23.659056 7.358053 -7.339076 -24.037594 10.738993 -11.802436 0.000000 0.000000 0.000000 -6.422959 13.114977 15.904376 -41.222347 -4.649344 -2.320536 56.963351 -17.213622 -9.098730 -2.024685 -13.966770 -17.179101 0.000000 0.000000 0.000000 12.846942 8.011424 -0.433726 30.703159 11.194447 -6.808639 9.674508 0.118067 4.386913 3.609134 -0.552686 2.874663 0.000000 0.000000 0.000000 4.215352 -0.380524 2.136777 0.141178 -0.204651 0.610140 0.000000 0.000000 0.000000 8.844245 -1.588171 4.123340 3.402006 -13.279896 5.445789 -17.026191 -50.449427 -0.750920 79.570570 -79.855437 89.131312 0.000000 0.000000 0.000000 7.428586 0.470680 1.261345 2.751609 4.092783 6.162779 -14.043115 29.117025 -6.628749 68.569417 77.022821 -84.859862 0.000000 0.000000 0.000000 
-1.050502 82.319649 76.149216 0.000000 0.000000 0.000000 29.846192 -2.832139 -4.984917 2.325232 15.421331 7.014721 23.932930 7.282326 -7.413229 -23.876308 10.693324 -11.924974 0.000000 0.000000 0.000000 -6.479720 12.893342 15.933499 -41.382477 -4.709718 -2.361764 57.234301 -17.195782 -9.146389 -1.873608 -13.898626 -17.243735 0.000000 0.000000 0.000000 12.896163 7.935013 -0.429514 31.068563 11.277141 -6.913555 9.439151 0.096114 4.353931 3.458944 -0.561323 2.866015 0.000000 0.000000 0.000000 4.056518 -0.381502 2.118358 0.087661 -0.203771 0.595260 0.000000 0.000000 0.000000 8.663740 -1.603997 4.112982 3.377934 -13.352313 5.541063 -17.471439 -50.335830 -0.972076 77.962101 -79.903747 87.514572 0.000000 0.000000 0.000000 7.246512 0.439911 1.235757 2.734194 4.118074 6.023782 -14.240471 29.235938 -6.447751 67.593075 77.053864 -83.856575 0.000000 0.000000 0.000000 
